REM DIRINDEX 1\2\5,1\2\6,1\2\7,1\2\8,1\3\9,1\3\10,1\3\11,1\4\12,1\4\13,1\4\14,1\4\15,1\4\16
REM DIRNAME folder01,folder02,folder03,folder04,folder05,folder06,folder07,folder08,folder09,folder10,folder11,folder12,folder13,folder14,folder15,folder16
TITLE ""
FILE "1200_2_sec01_0032_0048.mp3" MP3
  TRACK 01 AUDIO
    TITLE "0:"
    INDEX 01 00:00:00
  TRACK 02 AUDIO
    TITLE "10:cjc034_00066"
    INDEX 01 00:00:17
  TRACK 03 AUDIO
    TITLE "0:"
    INDEX 01 00:01:22
  TRACK 04 AUDIO
    TITLE "9:cjc034_00067"
    INDEX 01 00:01:28
  TRACK 05 AUDIO
    TITLE "0:"
    INDEX 01 00:02:47
  TRACK 06 AUDIO
    TITLE "10:cjc034_00068"
    INDEX 01 00:03:29
  TRACK 07 AUDIO
    TITLE "0:"
    INDEX 01 00:04:17
  TRACK 08 AUDIO
    TITLE "9:cjc034_00069"
    INDEX 01 00:04:25
  TRACK 09 AUDIO
    TITLE "0:"
    INDEX 01 00:05:40
  TRACK 10 AUDIO
    TITLE "10:cjc034_00070"
    INDEX 01 00:06:24
  TRACK 11 AUDIO
    TITLE "0:"
    INDEX 01 00:07:21
  TRACK 12 AUDIO
    TITLE "9:cjc034_00071"
    INDEX 01 00:07:25
  TRACK 13 AUDIO
    TITLE "0:"
    INDEX 01 00:08:30
  TRACK 14 AUDIO
    TITLE "10:cjc034_00072"
    INDEX 01 00:09:14
  TRACK 15 AUDIO
    TITLE "0:"
    INDEX 01 00:10:29
  TRACK 16 AUDIO
    TITLE "9:cjc034_00073"
    INDEX 01 00:10:33
  TRACK 17 AUDIO
    TITLE "0:"
    INDEX 01 00:11:33
  TRACK 18 AUDIO
    TITLE "10:cjc034_00074"
    INDEX 01 00:12:16
  TRACK 19 AUDIO
    TITLE "0:"
    INDEX 01 00:13:06
  TRACK 20 AUDIO
    TITLE "9:cjc034_00075"
    INDEX 01 00:13:12
  TRACK 21 AUDIO
    TITLE "0:"
    INDEX 01 00:14:31
  TRACK 22 AUDIO
    TITLE "11:cjc034_00076"
    INDEX 01 00:16:04
  TRACK 23 AUDIO
    TITLE "0:"
    INDEX 01 00:17:57
  TRACK 24 AUDIO
    TITLE "10:cjc034_00077"
    INDEX 01 00:18:64
  TRACK 25 AUDIO
    TITLE "0:"
    INDEX 01 00:19:54
  TRACK 26 AUDIO
    TITLE "9:cjc034_00078"
    INDEX 01 00:19:62
  TRACK 27 AUDIO
    TITLE "0:"
    INDEX 01 00:20:71
  TRACK 28 AUDIO
    TITLE "10:cjc034_00079"
    INDEX 01 00:21:60
  TRACK 29 AUDIO
    TITLE "0:"
    INDEX 01 00:24:14
  TRACK 30 AUDIO
    TITLE "9:cjc034_00080"
    INDEX 01 00:24:22
  TRACK 31 AUDIO
    TITLE "0:"
    INDEX 01 00:25:52
  TRACK 32 AUDIO
    TITLE "10:cjc034_00081"
    INDEX 01 00:26:34
  TRACK 33 AUDIO
    TITLE "0:"
    INDEX 01 00:29:11
  TRACK 34 AUDIO
    TITLE "9:cjc034_00082"
    INDEX 01 00:29:21
  TRACK 35 AUDIO
    TITLE "0:"
    INDEX 01 00:30:30
  TRACK 36 AUDIO
    TITLE "10:cjc034_00083"
    INDEX 01 00:31:12
  TRACK 37 AUDIO
    TITLE "0:"
    INDEX 01 00:33:48
  TRACK 38 AUDIO
    TITLE "9:cjc034_00084"
    INDEX 01 00:33:54
  TRACK 39 AUDIO
    TITLE "0:"
    INDEX 01 00:35:00
  TRACK 40 AUDIO
    TITLE "10:cjc034_00085"
    INDEX 01 00:35:59
  TRACK 41 AUDIO
    TITLE "0:"
    INDEX 01 00:36:62
  TRACK 42 AUDIO
    TITLE "9:cjc034_00086"
    INDEX 01 00:36:72
  TRACK 43 AUDIO
    TITLE "0:"
    INDEX 01 00:38:20
  TRACK 44 AUDIO
    TITLE "10:cjc034_00087"
    INDEX 01 00:39:05
  TRACK 45 AUDIO
    TITLE "0:"
    INDEX 01 00:40:32
  TRACK 46 AUDIO
    TITLE "9:cjc034_00088"
    INDEX 01 00:40:38
  TRACK 47 AUDIO
    TITLE "0:"
    INDEX 01 00:41:51
  TRACK 48 AUDIO
    TITLE "10:cjc034_00089"
    INDEX 01 00:42:33
  TRACK 49 AUDIO
    TITLE "0:"
    INDEX 01 00:43:48
  TRACK 50 AUDIO
    TITLE "9:cjc034_00090"
    INDEX 01 00:43:52
  TRACK 51 AUDIO
    TITLE "0:"
    INDEX 01 00:44:67
  TRACK 52 AUDIO
    TITLE "10:cjc034_00091"
    INDEX 01 00:45:51
  TRACK 53 AUDIO
    TITLE "0:"
    INDEX 01 00:46:37
  TRACK 54 AUDIO
    TITLE "9:cjc034_00092"
    INDEX 01 00:46:45
  TRACK 55 AUDIO
    TITLE "0:"
    INDEX 01 00:47:60
  TRACK 56 AUDIO
    TITLE "10:cjc034_00093"
    INDEX 01 00:48:44
  TRACK 57 AUDIO
    TITLE "0:"
    INDEX 01 00:49:57
  TRACK 58 AUDIO
    TITLE "9:cjc034_00094"
    INDEX 01 00:49:72
  TRACK 59 AUDIO
    TITLE "0:"
    INDEX 01 00:50:72
  TRACK 60 AUDIO
    TITLE "10:cjc034_00095"
    INDEX 01 00:51:56
  TRACK 61 AUDIO
    TITLE "0:"
    INDEX 01 00:52:45
  TRACK 62 AUDIO
    TITLE "9:cjc034_00096"
    INDEX 01 00:52:49
  TRACK 63 AUDIO
    TITLE "0:"
    INDEX 01 00:53:62
  TRACK 64 AUDIO
    TITLE "10:cjc034_00097"
    INDEX 01 00:54:48
  TRACK 65 AUDIO
    TITLE "0:"
    INDEX 01 00:55:55
  TRACK 66 AUDIO
    TITLE "9:cjc034_00098"
    INDEX 01 00:55:57
  TRACK 67 AUDIO
    TITLE "0:"
    INDEX 01 00:56:67
  TRACK 68 AUDIO
    TITLE "10:cjc034_00099"
    INDEX 01 00:57:50
  TRACK 69 AUDIO
    TITLE "0:"
    INDEX 01 00:58:44
  TRACK 70 AUDIO
    TITLE "9:cjc034_00100"
    INDEX 01 00:58:50
  TRACK 71 AUDIO
    TITLE "0:"
    INDEX 01 00:59:65
